PathFileType	4	(X/Y/Z)	s07c0303.trc
DataRate	CameraRate	NumFrames	NumMarkers	Units	OrigDataRate	OrigDataStartFrame	OrigNumFrames
200	200	4	48	mm	200	1750	2000
Frame#	Time	racr			lacr			c7			jug			rlel			rdr			llel			ldr			s2			lic			ric			lasi			rasi			rpsi			lpsi			rgt			lgt			rth1			rth2			rth3			rth4			rlfc			rmfc			rsh1			rsh2			rsh3			rsh4			rlmal			rcal			rtoe			rmt5			lth1			lth2			lth4			lth3			llfc			lmfc			lsh1			lsh2			lsh3			lsh4			llmal			lcal			ltoe			lmt5			SBIKE			LBIKE			RBIKE			
		X1	Y1	Z1	X2	Y2	Z2	X3	Y3	Z3	X4	Y4	Z4	X5	Y5	Z5	X6	Y6	Z6	X7	Y7	Z7	X8	Y8	Z8	X9	Y9	Z9	X10	Y10	Z10	X11	Y11	Z11	X12	Y12	Z12	X13	Y13	Z13	X14	Y14	Z14	X15	Y15	Z15	X16	Y16	Z16	X17	Y17	Z17	X18	Y18	Z18	X19	Y19	Z19	X20	Y20	Z20	X21	Y21	Z21	X22	Y22	Z22	X23	Y23	Z23	X24	Y24	Z24	X25	Y25	Z25	X26	Y26	Z26	X27	Y27	Z27	X28	Y28	Z28	X29	Y29	Z29	X30	Y30	Z30	X31	Y31	Z31	X32	Y32	Z32	X33	Y33	Z33	X34	Y34	Z34	X35	Y35	Z35	X36	Y36	Z36	X37	Y37	Z37	X38	Y38	Z38	X39	Y39	Z39	X40	Y40	Z40	X41	Y41	Z41	X42	Y42	Z42	X43	Y43	Z43	X44	Y44	Z44	X45	Y45	Z45	X46	Y46	Z46	X47	Y47	Z47	X48	Y48	Z48	
1750	8.7500	692.311956	1437.255813	-107.265569	661.823902	1442.500397	-422.224433	668.287752	1496.143796	-261.763332	621.169032	1353.906839	-264.164969	568.214812	1130.735563	32.455749	725.572782	907.618361	-69.580251	552.298145	1126.813819	-520.101922	723.378997	905.222893	-418.764726	73.559639	1321.147478	-239.544633	233.830817	1336.301276	-390.472922	259.070211	1313.312020	-100.456473	246.172044	1251.473603	-368.074446	257.876093	1260.149102	-117.176160	111.124846	1353.064248	-188.231413	120.310771	1360.650248	-297.254797	176.016538	1206.451376	-54.283876	142.160290	1195.560181	-415.621926	279.751094	1080.063258	-52.013544	342.687522	1020.337246	-66.170942	371.305891	939.436220	-67.144594	368.149518	1039.977384	-85.059949	430.031482	820.437094	-100.046913	414.063443	804.765670	-201.899713	368.325531	690.779562	-71.088613	350.012055	604.776089	-90.515229	297.065880	536.555683	-82.388930	362.522759	602.859073	-128.036056	234.154051	410.649464	-80.255008	164.102226	371.510837	-107.532696	452.857915	346.620281	-131.579299	377.767453	316.856824	-57.151562	175.420576	1076.125318	-427.996845	228.377955	1005.805747	-434.224355	262.469742	1019.800471	-430.324295	239.708460	917.680749	-430.550198	289.519298	745.724233	-403.747728	283.544961	732.362441	-311.285174	178.606809	645.590010	-420.509841	132.011248	576.661491	-397.463503	52.819971	533.757701	-401.784935	138.039617	577.088970	-355.647573	-52.844287	450.517577	-394.976452	-135.608618	446.299014	-360.435734	117.465991	304.079429	-359.564731	33.478190	317.442711	-423.050963	-260.634355	962.326004	-237.077056	-82.270474	79.114437	-436.055371	-82.405588	79.572719	-38.554040	
1751	8.7550	691.506173	1437.455190	-107.484530	660.424232	1443.167812	-422.194002	666.867320	1496.613320	-261.882808	620.129597	1354.453548	-264.565299	568.500020	1130.862896	32.902413	725.505168	907.561898	-69.543632	552.426980	1127.015120	-519.841426	723.393379	905.112950	-418.741860	71.916274	1322.553584	-239.064423	232.226691	1337.435925	-390.002310	257.649321	1313.801905	-99.984694	244.326311	1252.498993	-367.604416	256.148454	1260.573909	-116.891471	109.604040	1354.182730	-187.605447	118.773048	1361.941790	-296.657240	173.761738	1207.042894	-53.990524	140.366214	1197.036039	-415.482986	276.071113	1079.378114	-51.552099	338.347082	1018.980650	-65.697637	366.061055	937.760607	-66.675950	363.872411	1038.442330	-84.567158	424.076029	818.625408	-99.339837	408.431023	802.779524	-201.021531	363.772342	688.207568	-70.628163	346.605581	602.125152	-90.174805	294.571213	533.048389	-82.119863	359.226148	600.411761	-127.725330	233.278384	406.424233	-80.308728	163.438156	366.857659	-107.824425	452.463835	343.754672	-131.326516	377.379715	313.457970	-57.076218	173.916774	1077.727943	-427.938720	227.273777	1007.720402	-434.219949	261.214956	1021.638906	-429.959894	239.022375	919.653089	-431.200790	289.525897	747.580386	-404.006152	283.512958	734.281933	-311.390604	178.252646	647.799221	-420.827086	131.277497	578.987384	-397.819572	51.959984	536.714427	-401.964304	137.394095	579.437836	-355.902274	-54.190187	453.743687	-395.016042	-136.848908	448.776060	-360.423840	117.335947	308.523676	-359.595404	33.186169	321.289928	-423.086197	-260.612651	962.327650	-237.070973	-82.277481	79.117395	-436.046347	-82.402935	79.582534	-38.545991	
1752	8.7600	690.593856	1437.579105	-108.002727	659.032315	1443.803089	-422.105077	665.433393	1496.976918	-261.974425	618.921694	1354.711881	-264.908364	568.721714	1130.993243	33.308234	725.446770	907.506924	-69.479941	552.595335	1127.215798	-519.594670	723.435397	905.025021	-418.739548	70.303865	1323.856468	-238.603978	230.678467	1338.476107	-389.567265	256.206326	1314.286259	-99.492016	242.417979	1253.502109	-367.189649	254.440791	1261.034935	-116.474199	108.105187	1355.322753	-187.023198	117.275441	1363.193618	-296.162753	171.478064	1207.633601	-53.705115	138.480863	1198.451728	-415.293424	272.329140	1078.768806	-51.124814	333.991813	1017.836284	-65.241721	360.990096	936.312744	-66.216953	359.711538	1036.820720	-84.260714	418.327015	816.885372	-98.701205	402.893451	801.233775	-200.270379	359.252401	685.999473	-70.129859	343.243415	599.623822	-89.851854	292.101283	529.819356	-81.980548	355.876428	598.016453	-127.364949	232.321024	402.480921	-80.412209	162.853146	362.427999	-107.970120	452.031833	341.093919	-131.028327	377.019243	310.203724	-57.051946	172.491324	1079.245434	-427.761980	226.138982	1009.536176	-434.116992	260.127376	1023.736148	-429.779176	238.322010	921.521156	-431.433216	289.413595	749.318618	-404.171925	283.346179	736.091676	-311.465878	177.756176	649.900331	-421.008982	130.459759	581.396502	-397.961908	50.895152	539.485636	-402.103515	136.624569	581.776471	-356.061949	-55.402416	456.631901	-394.991401	-138.108718	451.055949	-360.360703	117.265961	313.060674	-359.643810	32.996320	325.078552	-423.090381	-260.602091	962.339905	-237.084675	-82.294937	79.273881	-436.168517	-82.402338	79.609299	-38.521896	
1753	8.7650	689.701020	1437.797857	-108.311765	657.643120	1444.399692	-421.877727	663.944736	1497.351828	-262.045346	617.743334	1354.835138	-265.122091	568.910954	1131.106496	33.614597	725.424836	907.404071	-69.406574	552.753811	1127.461259	-519.386599	723.497423	904.955095	-418.749846	68.682647	1325.095701	-238.185881	229.102609	1339.404299	-388.964270	254.733605	1314.675085	-99.068222	240.584198	1254.319715	-366.647584	252.695775	1261.385143	-116.116711	106.613700	1356.329756	-186.474365	115.784341	1364.398557	-295.681977	169.165038	1208.146788	-53.469776	136.732582	1199.747997	-415.119796	268.622093	1078.360211	-50.669633	329.731320	1016.745737	-64.824383	355.966965	935.078531	-65.668703	355.568622	1035.616545	-83.872354	412.664862	815.271721	-98.052093	397.423714	799.677713	-199.630305	354.719153	683.826641	-69.614525	339.869592	597.275861	-89.400306	289.518010	526.864921	-81.779396	352.600435	595.756553	-126.926996	231.307989	398.728270	-80.485966	162.236521	358.178689	-108.277410	451.756437	338.613179	-130.539378	376.534397	307.178865	-56.855807	171.098483	1080.754945	-427.626971	225.137978	1011.250433	-433.898146	259.005671	1025.647099	-429.488306	237.679982	923.294275	-431.539687	289.139210	751.057691	-404.339093	283.128431	737.813889	-311.486040	177.173392	651.926272	-421.045961	129.566524	583.703255	-397.981419	49.864700	542.121916	-402.104676	135.879502	583.955603	-356.186280	-56.801622	459.494134	-394.813114	-139.861785	452.965047	-360.112315	117.218057	317.465137	-359.682617	32.851818	328.680095	-423.104727	-260.587860	962.342845	-237.058938	-82.293094	79.277268	-436.171663	-82.408762	79.598366	-38.539699	
